<svg id="CTFBox-Orange" xmlns="http://www.w3.org/2000/svg" viewBox="0 0 1024 1024"><defs><style>.cls-1{fill:#fff;}.cls-2{fill:#1a1a1a;}.cls-3{fill:#222;}.cls-4{fill:#101010;}.cls-5{fill:none;stroke:#fb8c00;stroke-linecap:round;stroke-miterlimit:10;stroke-width:16px;}.cls-6{fill:#fb8c00;}.cls-7{fill:#212121;}</style></defs><rect class="cls-1" width="1024" height="1024"/><path class="cls-2" d="M779.64,242.28V527.53a18.43,18.43,0,0,1-9.26,16L521.15,686.26A18.45,18.45,0,0,1,512,688.7V384.91L777.14,233A18.37,18.37,0,0,1,779.64,242.28Z"/><path class="cls-3" d="M777.14,233,512,384.91,246.86,233a18.49,18.49,0,0,1,6.76-6.73L502.85,83.55a18.39,18.39,0,0,1,18.3,0L770.38,226.3A18.49,18.49,0,0,1,777.14,233Z"/><path class="cls-4" d="M512,384.91V688.7a18.45,18.45,0,0,1-9.15-2.44L253.62,543.51a18.43,18.43,0,0,1-9.26-16V242.28a18.37,18.37,0,0,1,2.5-9.25Z"/><line class="cls-5" x1="512" y1="146.58" x2="381.49" y2="221.33"/><line class="cls-5" x1="642.51" y1="221.33" x2="512" y2="296.08"/><line class="cls-5" x1="381.49" y1="221.33" x2="512" y2="296.08"/><line class="cls-5" x1="311.27" y1="348.03" x2="445.09" y2="424.68"/><line class="cls-5" x1="376.63" y1="385.47" x2="376.63" y2="545.06"/><line class="cls-5" x1="613.34" y1="410.64" x2="613.34" y2="570.23"/><line class="cls-5" x1="696.24" y1="363.16" x2="613.34" y2="410.64"/><line class="cls-5" x1="696.24" y1="451" x2="613.34" y2="498.48"/><path class="cls-6" d="M229.91,872.08v-64.5C229.91,784,246.6,774,265.05,774c18.29,0,35,10,35,33.54v9.3H282.7v-9.3c0-11.4-5.62-16.21-17.65-16.21s-17.81,4.81-17.81,16.21v64.5c0,11.39,5.78,16.21,17.81,16.21s17.65-4.82,17.65-16.21v-9.31H300v9.31c0,23.59-16.69,33.53-35,33.53C246.6,905.61,229.91,895.67,229.91,872.08Z"/><path class="cls-6" d="M357.8,904V793H332.12V775.65h68.52V793H375.13V904Z"/><path class="cls-6" d="M450.06,793v35.79h48v17.33h-48V904H432.73V775.65h68.52V793Z"/><path class="cls-7" d="M530.13,904V775.65h27c18.45,0,35.14,9.94,35.14,33.53,0,9.63-2.89,17-7.54,22.3,10.11,6.58,16.21,18.14,16.21,33.22,0,24.07-15.73,39.31-38.51,39.31Zm17.33-111v32.26h9.63c12,0,17.65-4.82,17.65-16.05,0-11.39-5.61-16.21-17.65-16.21Zm36.11,71.73c0-13-7.54-22.14-21.18-22.14H547.46v44.12h14.93C576,886.68,583.57,877.54,583.57,864.7Z"/><path class="cls-7" d="M633,866.3c0-25.67,14.6-41.07,35.3-41.07,20.54,0,35.14,15.4,35.14,41.07,0,24.07-14.6,39.31-35.14,39.31C647.59,905.61,633,890.37,633,866.3Zm17.33,0c0,12.84,6.26,22,18,22,11.55,0,17.81-9.15,17.81-22,0-14.6-6.26-23.74-17.81-23.74C656.58,842.56,650.32,851.7,650.32,866.3Z"/><path class="cls-7" d="M794.09,825.23,774.51,864.7,794.09,904H774.68l-9.95-19.9-10,19.9H735.52L755.1,864.7l-19.58-39.47h19.26l10,20,9.95-20Z"/></svg>