<svg xmlns="http://www.w3.org/2000/svg" viewBox="0 0 1024 1024"><defs><style>.cls-1{fill:#222;}.cls-2{fill:#1a1a1a;}.cls-3{fill:#101010;}.cls-4{fill:none;stroke:#fb8c00;stroke-linecap:round;stroke-miterlimit:10;stroke-width:16px;}.cls-5{fill:#fb8c00;}.cls-6{fill:#212121;}</style></defs><g id="レイヤー_2" data-name="レイヤー 2"><path class="cls-1" d="M789.56,232.94,512,391.92l-277.56-159a18.44,18.44,0,0,1,6.77-6.73L502.85,76.35a18.39,18.39,0,0,1,18.3,0L782.79,226.21A18.37,18.37,0,0,1,789.56,232.94Z"/><path class="cls-2" d="M782.79,557.63,521.15,707.5a18.42,18.42,0,0,1-9.15,2.44v-318l277.56-159a18.33,18.33,0,0,1,2.49,9.24V541.66A18.4,18.4,0,0,1,782.79,557.63Z"/><path class="cls-3" d="M502.85,707.5,241.21,557.63a18.4,18.4,0,0,1-9.26-16V242.18a18.43,18.43,0,0,1,2.49-9.24L512,391.92v318A18.42,18.42,0,0,1,502.85,707.5Z"/><line class="cls-4" x1="512" y1="142.54" x2="375.44" y2="220.76"/><line class="cls-4" x1="648.56" y1="220.76" x2="512" y2="298.98"/><line class="cls-4" x1="375.44" y1="220.76" x2="512" y2="298.98"/><line class="cls-4" x1="301.96" y1="353.33" x2="441.99" y2="433.54"/><line class="cls-4" x1="370.36" y1="392.51" x2="370.36" y2="559.5"/><line class="cls-4" x1="618.04" y1="418.85" x2="618.04" y2="585.84"/><line class="cls-4" x1="704.79" y1="369.16" x2="618.04" y2="418.85"/><line class="cls-4" x1="704.79" y1="461.08" x2="618.04" y2="510.77"/><path class="cls-5" d="M232,897.34v-64c0-23.42,16.57-33.29,34.89-33.29,18.16,0,34.72,9.87,34.72,33.29v9.24h-17.2V833.3c0-11.31-5.58-16.09-17.52-16.09S249.15,822,249.15,833.3v64c0,11.31,5.74,16.09,17.69,16.09s17.52-4.78,17.52-16.09V888.1h17.2v9.24c0,23.41-16.56,33.29-34.72,33.29C248.52,930.63,232,920.75,232,897.34Z"/><path class="cls-5" d="M358.91,929V818.8H333.42V801.6h68v17.2H376.12V929Z"/><path class="cls-5" d="M450.51,818.8v35.53h47.63v17.2H450.51V929h-17.2V801.6h68v17.2Z"/><path class="cls-6" d="M530,929V801.6h26.76c18.32,0,34.89,9.88,34.89,33.29,0,9.56-2.87,16.89-7.49,22.15,10,6.53,16.09,18,16.09,33,0,23.89-15.61,39-38.23,39ZM547.21,818.8v32h9.55c12,0,17.53-4.78,17.53-15.93,0-11.31-5.58-16.09-17.53-16.09ZM583.05,890c0-12.9-7.49-22-21-22H547.21v43.8H562C575.56,911.83,583.05,902.75,583.05,890Z"/><path class="cls-6" d="M632.11,891.6c0-25.48,14.5-40.78,35-40.78,20.39,0,34.89,15.3,34.89,40.78,0,23.9-14.5,39-34.89,39C646.61,930.63,632.11,915.5,632.11,891.6Zm17.21,0c0,12.75,6.21,21.83,17.84,21.83,11.47,0,17.68-9.08,17.68-21.83,0-14.49-6.21-23.57-17.68-23.57C655.53,868,649.32,877.11,649.32,891.6Z"/><path class="cls-6" d="M792.05,850.82,772.62,890l19.43,39H772.78l-9.88-19.75L753,929H733.91l19.43-39-19.43-39.19H753l9.88,19.92,9.88-19.92Z"/></g></svg>